<svg width="1280" height="834" viewBox="0 0 1280 834" fill="none" xmlns="http://www.w3.org/2000/svg">
<path d="M171 547H201M186 532V562" stroke="black" stroke-width="2"/>
<foreignObject x="1062.7" y="476.697" width="360.606" height="360.607"><div xmlns="http://www.w3.org/1999/xhtml" style="backdrop-filter:blur(7.95px);height:100%;width:100%"></div></foreignObject><path data-figma-bg-blur-radius="15.9" d="M1168 582L1318 732M1318 582L1168 732" stroke="black" stroke-opacity="0.05" stroke-width="15"/>
<path d="M972 238H1002M987 223V253" stroke="black" stroke-width="2"/>
<path d="M239 592H253M246 585V599" stroke="black" stroke-width="2"/>
<path d="M934 260H948M941 253V267" stroke="black" stroke-width="2"/>
<path d="M240 142.5H293M266.5 116V169" stroke="black" stroke-width="2"/>
<path d="M801 624.5H846M823.5 602V647" stroke="black" stroke-width="2"/>
<path d="M855 664.5H870M862.5 657V672" stroke="black" stroke-width="2"/>
<path d="M1084 708.5H1129M1106.5 686V731" stroke="black" stroke-width="2"/>
<foreignObject x="-101.303" y="586.697" width="342.607" height="342.607"><div xmlns="http://www.w3.org/1999/xhtml" style="backdrop-filter:blur(4px);height:100%;width:100%"></div></foreignObject><path data-figma-bg-blur-radius="8" d="M0 688L140 828M140 688L0 828" stroke="black" stroke-opacity="0.05" stroke-width="15"/>
<foreignObject x="1034.7" y="-130.303" width="350.606" height="350.607"><div xmlns="http://www.w3.org/1999/xhtml" style="backdrop-filter:blur(5.05px);height:100%;width:100%"></div></foreignObject><path data-figma-bg-blur-radius="10.1" d="M1140 -25L1280 115M1280 -25L1140 115" stroke="black" stroke-opacity="0.05" stroke-width="15"/>
<path d="M119 131L359 371M359 131L119 371" stroke="black" stroke-opacity="0.05" stroke-width="22"/>
<path d="M1101 176.157L1027.5 354.029M1101 176.157L1157.5 370.615M1101 176.157C1094 597.102 1010.5 861.909 769.5 776.118C599.449 684.886 633.798 429.647 715.039 481.487C796.288 533.323 684.068 706.316 592.988 702.066C501.905 697.817 479.934 607.799 493.166 527.636C506.403 447.472 558.168 423.989 570.07 460.748C581.977 497.517 438 563.358 405.5 450.114" stroke="#333333" stroke-opacity="0.17" stroke-width="13" stroke-miterlimit="16" stroke-linecap="round"/>
</svg>
