<svg width="19" height="24" viewBox="0 0 19 24" fill="none" xmlns="http://www.w3.org/2000/svg">
<path d="M5.85936 3.2788C5.85936 1.46795 7.43334 0 9.37499 0C11.3166 0 12.8906 1.46795 12.8906 3.2788C12.8906 5.08961 11.3166 6.5576 9.37499 6.5576C7.43334 6.5576 5.85936 5.08961 5.85936 3.2788ZM18.2923 3.34133C17.6822 2.77223 16.6928 2.77223 16.0827 3.34133L11.8528 7.28622H6.89716L2.66732 3.34133C2.05717 2.77223 1.06781 2.77223 0.457654 3.34133C-0.152551 3.91042 -0.152551 4.83309 0.457654 5.40219L5.07811 9.71135V21.8587C5.07811 22.6635 5.77767 23.3159 6.64061 23.3159H7.42186C8.2848 23.3159 8.98436 22.6635 8.98436 21.8587V16.7583H9.76561V21.8587C9.76561 22.6635 10.4652 23.3159 11.3281 23.3159H12.1094C12.9723 23.3159 13.6719 22.6635 13.6719 21.8587V9.71135L18.2923 5.40214C18.9025 4.83304 18.9025 3.91042 18.2923 3.34133Z" fill="black"/>
</svg>